<svg width="1920" height="1080" viewBox="0 0 1920 1080" fill="none" xmlns="http://www.w3.org/2000/svg">
<g clip-path="url(#clip0_5_856)">
<rect width="1920" height="1080" fill="#F5F5F5"/>
<path d="M91.7117 234.927C89.4565 255.434 86.7393 275.908 83.118 296.294C80.8591 277.154 87.6102 254.422 91.7117 234.927C94.1975 212.324 96.122 189.681 98.0773 167.073C100.545 138.542 102.435 110.105 102.435 81.5173C102.435 69.9033 101.124 57.723 103.036 46.1499C104.376 38.039 107.075 29.8854 109.346 21.8979L109.357 21.8588C110.153 19.0606 110.459 17.9863 110.548 21.6733C110.989 39.7869 110.654 58.0341 109.947 76.128C107.986 126.325 101.495 176.079 93.4194 225.906C92.9483 228.813 92.3634 231.829 91.7117 234.927Z" fill="#FFC500"/>
<path d="M370.188 232.082C365.461 232.082 362.092 231.978 358.017 229.948C348.414 225.164 334.503 248.979 330.22 254.312C321.249 265.485 301.307 275.747 288.75 284.74C274.161 295.187 259.07 305.876 243.974 315.841C208.691 339.13 190.707 373.032 157.728 398.028C134.022 415.995 106.876 428.899 80.9483 444.398C68.8069 451.656 56.1136 458.184 44.1359 465.507C22.7797 478.563 44.1885 435.217 45.338 431.711C56.7375 396.945 68.8013 362.39 76.8914 327.068C89.0016 274.196 93.4535 220.536 98.0773 167.073C100.545 138.542 102.435 110.105 102.435 81.5173C102.435 69.9033 101.124 57.723 103.036 46.1499C104.376 38.039 107.075 29.8854 109.346 21.8979C110.15 19.0707 110.458 17.9692 110.548 21.6733C110.989 39.7869 110.654 58.0341 109.947 76.128C107.986 126.325 101.495 176.079 93.4194 225.906C89.8423 247.977 79.7118 276.338 83.5026 298.999C83.8049 300.806 84.1708 295.387 84.7046 293.61C87.562 284.098 92.0372 275.083 97.7768 266.326C109.63 248.242 126.228 233.454 143.003 217.935" stroke="#FFC500" stroke-width="66" stroke-linecap="round"/>
<path d="M99.7305 424.076C98.8194 429.523 83.5984 438.091 78.6949 441.816C76.7621 443.284 65.4127 452.864 67.2756 451.472C85.884 437.567 119.071 429.15 143.304 420.82C169.33 411.874 194.476 401.56 218.432 389.832C244.737 376.953 273.887 368.638 300.771 356.485C340.943 338.326 382.632 326.057 425.332 311.686C467.599 297.461 507.487 279.555 545.986 260.375" stroke="#FFC500" stroke-width="121" stroke-linecap="round"/>
<path d="M1857.71 120.927C1870.04 122.078 1863.12 138.799 1863.12 143.27C1863.12 155.87 1857.93 126.316 1857.71 123.846C1856.35 108.942 1853.03 93.7356 1852.3 78.935C1852.05 73.9419 1848.33 70.0719 1850.8 65.0126C1855.87 54.5756 1860.61 48.3946 1869.43 39.4133C1874.04 34.7149 1871.23 42.893 1871.23 46.2622C1871.23 52.2878 1871.23 58.3133 1871.23 64.3389" stroke="#FFC500" stroke-width="121" stroke-linecap="round"/>
<path d="M1873.93 74.4438C1873.93 103.296 1879.34 132.823 1879.34 161.347" stroke="#FFC500" stroke-width="121" stroke-linecap="round"/>
<path d="M1792.8 54.2339C1754.18 68.6642 1716.67 69.1927 1674.1 70.2896C1658.13 70.7011 1631.29 72.8766 1616.55 67.3704C1601.2 61.6351 1577.69 73.7231 1562.91 66.3599" stroke="#FFC500" stroke-width="121" stroke-linecap="round"/>
<path d="M45.6382 48.1709H1741.41" stroke="#FFC500" stroke-width="121" stroke-linecap="round"/>
<path d="M56.457 74.4438V387.698" stroke="#FFC500" stroke-width="121" stroke-linecap="round"/>
<path d="M483.781 102.738C413.951 155.941 336.667 203.466 263.007 253.778C281.331 230.48 303.649 208.371 325.736 186.455C323.511 185.398 322.595 182.81 322.708 178.188C323.17 159.392 342.702 138.806 357.267 124.295C367.214 114.384 379.916 105.822 392.727 98.0222C421.019 80.7957 382.997 125.457 382.209 126.428C365.691 146.778 345.809 166.537 325.736 186.455C328.242 187.645 332.409 186.896 338.635 184.925C370.836 174.734 398.975 159.873 425.182 142.709C447.574 128.043 467.079 110.52 490.091 96.4503C491.44 95.6261 484.509 102.183 483.781 102.738Z" fill="#FFC500"/>
<path d="M151.118 159.326C157.533 131.04 165.856 103.396 178.464 76.2403C180.435 71.9945 183.465 62.9029 183.572 72.872C183.874 100.807 183.176 128.732 181.168 156.631C178.549 193.032 172.754 229.292 172.754 265.765C172.754 275.234 175.315 286.309 171.101 295.406C161.622 315.869 149.755 334.052 137.144 353.454C135.426 356.096 133.264 360.15 137.294 354.127C146.593 340.231 160.945 328.677 175.158 317.525C272.166 241.411 385.375 177.713 483.781 102.738C484.509 102.183 491.44 95.6261 490.092 96.4503C467.079 110.52 447.574 128.043 425.182 142.709C398.975 159.873 370.836 174.734 338.635 184.925C326.879 188.646 322.467 188.014 322.708 178.188C323.17 159.392 342.702 138.806 357.267 124.295C367.214 114.384 379.916 105.822 392.727 98.0222C421.019 80.7957 382.997 125.457 382.209 126.428C332.323 187.885 251.758 243.96 227.898 315.279C223.107 329.598 223.376 343.418 214.224 356.822C203.151 373.041 188.014 399.175 164.64 407.908" stroke="#FFC500" stroke-width="121" stroke-linecap="round"/>
<path d="M94.3213 468.538C98.3715 468.16 103.713 463.205 106.943 461.577C132.334 448.775 158.593 437.037 183.122 423.29C210.567 407.909 234.423 392.534 258.399 374.113C313.81 331.54 371.282 290.995 429.99 250.944C491.448 209.017 555.537 167.563 603.834 116.436C608.969 110.999 601.755 116.556 600.979 117.109C588.257 126.177 575.397 134.494 560.711 141.81C527.911 158.15 495.272 173.039 465.901 192.897C440.246 210.241 411.587 206.173 378.903 205.809C356.617 205.56 351.969 203.546 341.34 189.304C331.52 176.146 318.295 164.396 310.688 150.343C304.182 138.326 301.692 125.831 298.517 113.18C297.676 109.829 298.886 102.585 294.46 103.411C287.979 104.622 273.129 129.642 270.419 132.828C253.379 152.862 224.908 176.546 219.483 200.868C218.04 207.339 228.617 206.645 234.959 207.83" stroke="#FFC500" stroke-width="121" stroke-linecap="round"/>
<path d="M175.459 444.286C193.746 431.988 215.191 419.997 234.96 408.919C272.885 387.664 316.747 376.796 358.469 360.415C406.079 341.722 455.353 325.45 505.117 310.227C546.309 297.625 583.797 280.693 624.419 267.337C697.301 243.374 767.285 220.089 842.889 200.981C876.792 192.412 914.823 186.247 950.171 181.557C985.688 176.844 1021.14 171.915 1057.15 169.88C1122.1 166.209 1186.47 158.154 1250.68 150.343C1319.23 142.004 1388.75 131.718 1458.03 126.541C1521.81 121.775 1585.56 122.948 1649.76 122.948C1691.25 122.948 1732.08 123.111 1773.26 127.439C1787.17 128.9 1800.24 129.011 1814.43 129.011" stroke="#FFC500" stroke-width="121" stroke-linecap="round"/>
<path d="M1863.12 149.221C1644.41 149.221 1424.92 147.2 1205.9 147.2" stroke="#FFC500" stroke-width="121" stroke-linecap="round"/>
<path d="M1143.7 145.179C1134.06 130.779 1026.66 173.189 1008.77 177.065C979.463 183.416 951.359 192.24 922.073 198.623C877.674 208.299 832.471 212.984 788.497 224.447C719.963 242.311 655.818 265.995 584.752 278.677C543.073 286.114 503.608 295.265 466.201 311.013C436.787 323.395 404.154 345.069 370.188 349.299" stroke="#FFC500" stroke-width="121" stroke-linecap="round"/>
<path d="M524.349 314.942C505.319 315.691 488.524 327.234 471.159 332.345C452.91 337.718 436.136 348.362 417.068 351.769C365.657 360.956 315.531 381.444 269.518 400.273C221.017 420.12 170.782 438.235 123.771 460.005C100.868 470.611 79.2244 482.815 56.6072 493.801C49.9636 497.027 35.5285 501.837 32.1157 506.937" stroke="#FFC500" stroke-width="121" stroke-linecap="round"/>
<path d="M974.812 112.618C937.348 117.842 899.674 123.156 862.211 129.232C884.435 126.931 906.646 124.556 928.835 122.049C998.154 114.219 1071.87 110.561 1139.64 96.5624C1156.48 93.0845 1173.22 87.3667 1188.77 81.405C1190.97 80.5638 1183.75 81.3834 1181.41 81.9663C1115.11 98.4813 1043.19 103.084 974.812 112.618Z" fill="#FFC500"/>
<path d="M535.168 226.018C533.43 227.236 527.078 230.589 532.013 226.468C537.048 222.262 539.283 221.272 547.339 217.485C584.256 200.133 624.48 185.726 664.687 173.248C763.584 142.556 870.014 127.23 974.812 112.618C1043.19 103.084 1115.11 98.4813 1181.41 81.9663C1183.75 81.3834 1190.97 80.5638 1188.77 81.405C1173.22 87.3667 1156.48 93.0845 1139.64 96.5624C1071.87 110.561 998.154 114.219 928.835 122.049C867.132 129.019 805.259 134.975 743.421 141.137" stroke="#FFC500" stroke-width="121" stroke-linecap="round"/>
<path d="M5.06982 510.979C68.9663 508.466 136.799 495.622 197.696 481.113C236.141 471.953 275.052 457.345 312.04 445.184C352.912 431.746 394.567 419.778 435.399 406.336C472.152 394.237 508.11 379.063 543.882 365.355C587.137 348.779 631.415 332.771 676.407 318.984C789.111 284.449 905.446 255.684 1024.7 236.123C1121.57 220.233 1218.11 205.808 1317.69 205.808C1416.58 205.808 1515.48 203.787 1614.45 203.787C1679.91 203.787 1745.69 202.395 1811.13 203.9C1843.41 204.642 1874.15 209.63 1905.79 213.443C1915.13 214.57 1935.45 214.361 1938.84 221.976" stroke="#FFC500" stroke-width="3" stroke-linecap="round"/>
<path d="M4.85472 1L-5.93018 575L957.296 221.808H1448.68H1929.28L1940.07 1H4.85472Z" fill="#FFC500"/>
<path d="M1929.28 221.808L1940.07 1H4.85472L-5.93018 575L957.296 221.808M1929.28 221.808H1448.68H957.296M1929.28 221.808H957.296" stroke="#FFC500"/>
</g>
<defs>
<clipPath id="clip0_5_856">
<rect width="1920" height="1080" fill="white"/>
</clipPath>
</defs>
</svg>
