<svg width="100" height="100" viewBox="0 0 100 100" fill="none" xmlns="http://www.w3.org/2000/svg">
<path d="M27.8083 46.0896C22.376 42.9615 11.3542 36.6135 11.275 36.5677C16.0094 33.8406 27.0313 27.4927 27.8083 27.0458C29.3677 26.1469 27.9594 23.7323 26.3948 24.6333C20.9625 27.7615 15.5302 30.8906 10.0979 34.0188C9.32187 34.4667 8.54479 34.9135 7.76771 35.3615C6.85937 35.8844 6.85937 37.25 7.76771 37.774C13.199 40.9021 25.6177 48.0542 26.3948 48.5021C27.9583 49.4021 29.3698 46.9896 27.8083 46.0896Z" fill="white"/>
<mask id="mask0_9_4944" style="mask-type:luminance" maskUnits="userSpaceOnUse" x="71" y="24" width="23" height="25">
<path d="M71.7708 24.4354H93.2083V48.7219H71.7708V24.4354Z" fill="white"/>
</mask>
<g mask="url(#mask0_9_4944)">
<path d="M92.5271 35.3613C87.0948 32.2332 74.676 25.0811 73.9 24.6332C72.3365 23.7322 70.924 26.1457 72.4865 27.0457C77.9177 30.1738 88.9406 36.5218 89.0198 36.5676C84.2854 39.2936 73.2635 45.6426 72.4865 46.0895C70.926 46.9884 72.3344 49.403 73.9 48.502C79.3323 45.3738 91.75 38.2207 92.5271 37.7738C93.4354 37.2509 93.4354 35.8843 92.5271 35.3613Z" fill="white"/>
</g>
<mask id="mask1_9_4944" style="mask-type:luminance" maskUnits="userSpaceOnUse" x="35" y="13" width="31" height="40">
<path d="M35.2 13.8875H65.0667V52.8875H35.2V13.8875Z" fill="white"/>
</mask>
<g mask="url(#mask1_9_4944)">
<path d="M62.3219 43.3677C62.3219 43.3771 62.3125 43.3844 62.3031 43.3844H58.1052V35.0573H62.3031C62.3125 35.0573 62.3219 35.0646 62.3219 35.074V43.3677ZM50.6542 39.6031C50.8802 39.5146 51.1313 39.6261 51.2198 39.8511C51.3063 40.0761 51.1938 40.3271 50.9688 40.4146C50.7448 40.5011 50.4917 40.3896 50.4031 40.1646C50.3167 39.9417 50.4281 39.6886 50.6542 39.6031ZM48.5438 36.3292C48.5438 35.8511 48.9323 35.4636 49.4115 35.4636C49.8886 35.4636 50.2771 35.8511 50.2771 36.3292C50.2771 36.8052 49.8886 37.1927 49.4115 37.1927C48.9323 37.1927 48.5438 36.8052 48.5438 36.3292ZM46.9292 38.0615C46.9292 38.375 46.675 38.6302 46.3615 38.6302C46.0448 38.6302 45.7906 38.375 45.7906 38.0615C45.7906 37.7479 46.0448 37.4927 46.3615 37.4927C46.675 37.4927 46.9292 37.7479 46.9292 38.0615ZM45.6656 35.1344C45.0438 35.0417 44.6136 34.4615 44.7094 33.8417C44.8021 33.2219 45.3813 32.7917 46.0031 32.8875C46.6261 32.9802 47.0542 33.5583 46.9615 34.1781C46.8688 34.8 46.2886 35.2271 45.6656 35.1344ZM58.0844 25.9C58.0771 25.9469 58.0677 25.9948 58.0563 26.0438C58.0563 26.0511 58.0563 26.0531 58.0542 26.0604C58.0469 26.0906 58.0406 26.1229 58.0334 26.1552C58.0281 26.1792 58.0219 26.2021 58.0167 26.2229C58.0073 26.2667 57.9938 26.3083 57.9823 26.3479C57.6531 27.4625 56.7906 28.3844 55.6573 28.8781C55.5417 28.9292 55.4219 28.9761 55.3011 29.0156C55.0177 29.1125 54.7219 29.1823 54.4146 29.2271C54.3615 29.6813 54.2375 30.1177 54.0521 30.5198H55.0969C55.1636 30.5198 55.2313 30.5198 55.3011 30.5146V50.0927H41.2834V30.5198H42.9636V48.349H53.6209V31.2458C53.4656 31.4646 53.2886 31.6615 53.0927 31.8448C52.3271 32.5646 51.299 33.0031 50.1656 33.0031C48.4417 33.0031 46.9573 31.9844 46.2771 30.5198C46.0979 30.1323 45.975 29.7115 45.9188 29.2729H42.2011C41.8865 29.2729 41.5792 29.2427 41.2834 29.1844C40.925 29.1177 40.5834 29.0083 40.2625 28.8667C39.5292 28.5417 38.9104 28.0406 38.4802 27.4208C38.0563 26.8198 37.8146 26.1042 37.8146 25.3406C37.8146 23.6833 38.9615 22.2677 40.5813 21.6896V21.6573C40.5813 20.0969 41.849 18.8292 43.4177 18.8292C43.7063 18.8292 43.9854 18.874 44.2479 18.9521C44.8042 17.1281 46.5052 15.8 48.5177 15.8C50.6781 15.8 52.4792 17.3271 52.8927 19.3615C53.0177 19.3375 53.1511 19.3261 53.2865 19.3261C54.575 19.3261 55.625 20.3708 55.625 21.6573C55.625 21.7031 55.6229 21.7448 55.6177 21.7896C57.1021 22.4188 58.1281 23.7719 58.1281 25.3406C58.1281 25.4771 58.1188 25.6125 58.1052 25.7448C58.1052 25.7469 58.1052 25.7469 58.1052 25.749C58.0979 25.8 58.0917 25.849 58.0844 25.9ZM62.3031 32.5229H58.1052V29.7021C59.5552 28.8292 60.5115 27.3511 60.5115 25.6677C60.5115 23.7323 59.2459 22.0604 57.4115 21.2813C57.4167 21.2271 57.4167 21.174 57.4167 21.1208C57.4167 19.5302 56.125 18.2427 54.5313 18.2427C54.3656 18.2427 54.2052 18.2563 54.0448 18.2844C53.5354 15.775 51.3125 13.8875 48.6459 13.8875C46.1636 13.8875 44.0625 15.5261 43.3761 17.7802C43.05 17.6802 42.7052 17.6271 42.3469 17.6271C40.4136 17.6271 38.8479 19.1917 38.8479 21.1208V21.1573C36.8469 21.8708 35.4313 23.6208 35.4313 25.6677C35.4313 27.5781 36.6646 29.2292 38.4542 30.0208C38.4615 30.025 38.4709 30.0271 38.4802 30.0323V49.5958C38.4802 51.4136 40.1084 52.8875 42.1219 52.8875H54.4636C56.474 52.8875 58.1052 51.4136 58.1052 49.5958V45.9208H62.3031C63.7125 45.9208 64.8625 44.775 64.8625 43.3677V35.074C64.8625 33.6677 63.7125 32.5229 62.3031 32.5229Z" fill="#FFC500"/>
</g>
<path d="M16.3451 69.2957C15.6117 69.2957 14.9211 69.2353 14.2742 69.1165V60.0332C14.8711 59.9613 15.5638 59.9249 16.3534 59.9249C17.1451 59.9249 17.8596 60.0332 18.4992 60.2499C19.1409 60.4644 19.6763 60.7697 20.1076 61.1665C20.9763 61.9644 21.4117 63.0811 21.4117 64.5165C21.4117 66.1228 20.9263 67.3415 19.9576 68.1749C19.0878 68.9228 17.8836 69.2957 16.3451 69.2957ZM16.0409 67.6374C16.3346 67.6936 16.6294 67.7207 16.9242 67.7207C17.218 67.7207 17.5346 67.6645 17.8742 67.5499C18.2128 67.4332 18.5076 67.253 18.7576 67.0082C19.2909 66.4915 19.5576 65.7405 19.5576 64.754C19.5576 63.1322 18.9669 62.1363 17.7867 61.7665C17.3951 61.6447 16.943 61.5832 16.4326 61.5832H16.2492C16.1826 61.5832 16.1128 61.5853 16.0409 61.5874V67.6374Z" fill="#FFC500"/>
<path d="M26.326 65.6165C26.1895 65.6249 26.0437 65.629 25.8885 65.629C25.7353 65.629 25.5072 65.6186 25.2051 65.5957V69.1249H23.4051V60.0457C24.0385 59.9655 24.8176 59.9249 25.7426 59.9249C27.001 59.9249 27.9385 60.1572 28.5551 60.6207C29.1739 61.0853 29.4843 61.8019 29.4843 62.7707C29.4843 63.5207 29.201 64.1644 28.6343 64.6999C28.4478 64.8728 28.2353 65.0207 27.9968 65.1457L29.3801 68.0665C29.652 68.6697 29.8603 69.0269 30.0051 69.1374L29.9718 69.1707C29.5322 69.0988 28.8426 69.1019 27.901 69.179L26.326 65.6165ZM25.8718 61.529C25.6405 61.529 25.4187 61.5405 25.2051 61.5624V64.154C25.427 64.1874 25.6864 64.204 25.9843 64.204C26.2843 64.204 26.5353 64.178 26.7385 64.1249C26.9437 64.0728 27.1197 63.9915 27.2676 63.8832C27.5895 63.6447 27.751 63.2853 27.751 62.804C27.751 62.3238 27.5822 61.9863 27.2468 61.7915C26.9353 61.6165 26.477 61.529 25.8718 61.529Z" fill="#FFC500"/>
<path d="M31.7168 60.0666C32.1688 60.0864 32.4428 60.0957 32.5376 60.0957H33.0251C33.2668 60.0957 33.4595 60.078 33.6043 60.0416L33.5959 69.1249H31.7168V60.0666Z" fill="#FFC500"/>
<path d="M36.2104 69.1249C36.2374 68.9728 36.252 68.804 36.252 68.6207V60.0957H37.6104L41.2062 65.7582V60.5582C41.2062 60.3082 41.1833 60.154 41.1395 60.0957H42.9729C42.9499 60.277 42.9395 60.4749 42.9395 60.6915V69.1249H41.527L37.9812 63.6874V69.1249H36.2104Z" fill="#FFC500"/>
<path d="M47.1073 69.1666C46.7927 69.1384 46.3948 69.1249 45.9115 69.1249H45.374V60.0666L45.6448 60.0832C45.8365 60.0916 45.9792 60.0957 46.074 60.0957H46.2698C46.6698 60.0957 46.949 60.078 47.1073 60.0416V63.8749L49.8573 60.0666C50.1458 60.0864 50.3906 60.0957 50.5906 60.0957H50.9615C51.4281 60.0957 51.7615 60.078 51.9615 60.0416L49.3406 63.4624L51.9198 68.5832C52.0281 68.8311 52.1292 69.0114 52.224 69.1249H51.8115C50.8552 69.1249 50.2594 69.1426 50.024 69.1791C49.974 68.877 49.9073 68.6114 49.824 68.3832L48.0906 65.0874L47.1073 66.3749V69.1666Z" fill="#FFC500"/>
<path d="M57.5183 59.9249C58.3652 59.9249 59.0871 60.0728 59.685 60.3665V62.4457L59.6725 62.4582C59.4194 62.0697 58.885 61.8113 58.0683 61.6832C57.8288 61.6447 57.5267 61.6249 57.16 61.6249C56.7933 61.6249 56.4329 61.6947 56.0808 61.8332C55.7277 61.9697 55.4371 62.1644 55.21 62.4165C54.7704 62.9113 54.5517 63.6155 54.5517 64.529C54.5517 65.5936 54.8308 66.3853 55.3892 66.904C55.8496 67.3405 56.461 67.5582 57.2225 67.5582C58.0808 67.5582 58.7777 67.3749 59.3142 67.0082C59.5079 66.8749 59.6725 66.7113 59.8058 66.5165L59.8267 66.5332V68.4332C59.135 69.0082 58.2027 69.2957 57.0308 69.2957C55.6496 69.2957 54.5683 68.8572 53.785 67.979C53.035 67.1405 52.66 66.0311 52.66 64.6499C52.66 63.1894 53.0704 62.0374 53.8933 61.1957C54.7267 60.3488 55.935 59.9249 57.5183 59.9249Z" fill="white"/>
<path d="M62.2794 68.054C61.8679 67.6603 61.5429 67.1863 61.3044 66.6332C61.0648 66.0811 60.946 65.4749 60.946 64.8165C60.946 64.1582 61.0565 63.5353 61.2794 62.9457C61.5013 62.3572 61.8179 61.8394 62.2294 61.3915C62.6429 60.9447 63.1419 60.5894 63.7252 60.3249C64.3085 60.0582 64.9627 59.9249 65.6877 59.9249C66.9377 59.9249 67.9888 60.3197 68.8419 61.1082C69.7585 61.9499 70.2169 63.0863 70.2169 64.5165C70.2169 65.8999 69.746 67.0519 68.8044 67.9707C68.2231 68.5374 67.5335 68.927 66.7335 69.1374C66.3388 69.2426 65.8773 69.2957 65.3502 69.2957C64.8221 69.2957 64.2804 69.1874 63.7252 68.9707C63.1721 68.752 62.6898 68.4457 62.2794 68.054ZM62.8335 64.7249C62.8335 65.1478 62.9023 65.5353 63.0419 65.8874C63.1835 66.2405 63.3794 66.5436 63.6294 66.7957C64.1596 67.329 64.8419 67.5957 65.6752 67.5957C66.4669 67.5957 67.1013 67.3405 67.5794 66.829C68.0679 66.3019 68.3127 65.579 68.3127 64.6624C68.3127 63.804 68.0804 63.0874 67.6169 62.5124C67.1138 61.8957 66.4252 61.5874 65.5502 61.5874C64.7054 61.5874 64.0335 61.8999 63.5335 62.5249C63.0669 63.1082 62.8335 63.8415 62.8335 64.7249Z" fill="#211D1D"/>
<path d="M74.1587 69.2957C73.4253 69.2957 72.7347 69.2353 72.0878 69.1165V60.0332C72.6847 59.9613 73.3774 59.9249 74.167 59.9249C74.9587 59.9249 75.6732 60.0332 76.3128 60.2499C76.9545 60.4644 77.4899 60.7697 77.9212 61.1665C78.7899 61.9644 79.2253 63.0811 79.2253 64.5165C79.2253 66.1228 78.7399 67.3415 77.7712 68.1749C76.9014 68.9228 75.6972 69.2957 74.1587 69.2957ZM73.8545 67.6374C74.1482 67.6936 74.443 67.7207 74.7378 67.7207C75.0316 67.7207 75.3482 67.6645 75.6878 67.5499C76.0264 67.4332 76.3212 67.253 76.5712 67.0082C77.1045 66.4915 77.3712 65.7405 77.3712 64.754C77.3712 63.1322 76.7805 62.1363 75.6003 61.7665C75.2087 61.6447 74.7566 61.5832 74.2462 61.5832H74.0628C73.9962 61.5832 73.9264 61.5853 73.8545 61.5874V67.6374Z" fill="white"/>
<path d="M85.7604 67.4957C86.0406 67.4957 86.2354 67.4686 86.3437 67.4124L86.3729 67.4207L86.3062 69.1249H81.2187V60.0457C81.3406 60.0572 81.477 60.0645 81.627 60.0666L82.102 60.0832C82.4187 60.0916 82.7624 60.0957 83.1354 60.0957C84.1708 60.0957 85.1958 60.078 86.2104 60.0416C86.1604 60.4395 86.1354 60.9707 86.1354 61.6374C86.1354 61.7103 86.1395 61.7645 86.1479 61.7999L86.1354 61.8207C85.8989 61.752 85.5645 61.7166 85.1312 61.7166H82.9937V63.4499H84.602C85.0989 63.4499 85.3979 63.4364 85.4979 63.4082L85.5187 65.0874C85.2989 65.0624 85.0187 65.0499 84.677 65.0499H82.9937V67.4957H85.7604Z" fill="white"/>
<path d="M30.6705 74.4723H31.8747C32.258 74.4723 32.5424 74.5744 32.7288 74.7765C32.9143 74.9796 33.008 75.2765 33.008 75.6681V78.114C33.008 78.5056 32.9143 78.8035 32.7288 79.0056C32.5424 79.2087 32.258 79.3098 31.8747 79.3098H30.6705V74.4723ZM31.433 75.164V78.6181H31.8622C31.9809 78.6181 32.0757 78.5837 32.1455 78.514C32.2143 78.4452 32.2497 78.3223 32.2497 78.1473V75.6306C32.2497 75.4556 32.2143 75.3348 32.1455 75.2681C32.0757 75.1994 31.9809 75.164 31.8622 75.164H31.433Z" fill="white"/>
<path d="M37.0176 76.5098H38.0592V77.2015H37.0176V78.6181H38.3301V79.3098H36.2551V74.4723H38.3301V75.164H37.0176V76.5098Z" fill="white"/>
<path d="M41.5633 74.4723H42.3258V78.6181H43.5758V79.3098H41.5633V74.4723Z" fill="white"/>
<path d="M46.6711 74.4723H47.4336V79.3098H46.6711V74.4723Z" fill="white"/>
<path d="M51.8994 78.4181L52.4786 74.4723H53.1786L52.4286 79.3098H51.2952L50.5494 74.4723H51.3161L51.8994 78.4181Z" fill="white"/>
<path d="M57.055 76.5098H58.0967V77.2015H57.055V78.6181H58.3675V79.3098H56.2925V74.4723H58.3675V75.164H57.055V76.5098Z" fill="white"/>
<path d="M63.1924 79.3098C63.184 79.2765 63.1736 79.2462 63.1632 79.2181C63.1549 79.191 63.1465 79.1577 63.1382 79.1181C63.132 79.0765 63.1278 79.0244 63.1257 78.9598C63.1226 78.8931 63.1215 78.8119 63.1215 78.714V77.9556C63.1215 77.7306 63.082 77.5723 63.0049 77.4806C62.9267 77.3869 62.8007 77.339 62.6257 77.339H62.3632V79.3098H61.6007V74.4723H62.7507C63.1445 74.4723 63.4309 74.564 63.609 74.7473C63.7861 74.9306 63.8757 75.2098 63.8757 75.5848V75.964C63.8757 76.4619 63.7101 76.789 63.3799 76.9473C63.5715 77.0254 63.7028 77.1535 63.7757 77.3306C63.8476 77.5087 63.884 77.7244 63.884 77.9765V78.7223C63.884 78.8421 63.8882 78.9473 63.8965 79.039C63.9049 79.1285 63.9278 79.2181 63.9674 79.3098H63.1924ZM62.3632 75.164V76.6473H62.659C62.8028 76.6473 62.9153 76.6119 62.9965 76.539C63.0767 76.464 63.1174 76.3306 63.1174 76.139V75.6598C63.1174 75.4848 63.0851 75.3587 63.0215 75.2806C62.9601 75.2035 62.8632 75.164 62.7299 75.164H62.3632Z" fill="white"/>
<path d="M67.8563 77.7056L66.898 74.4723H67.6897L68.273 76.6765L68.8522 74.4723H69.5772L68.6188 77.7056V79.3098H67.8563V77.7056Z" fill="white"/>
<mask id="mask2_9_4944" style="mask-type:luminance" maskUnits="userSpaceOnUse" x="61" y="60" width="10" height="10">
<path d="M61.7125 60.7396H70.1125V69.1396H61.7125V60.7396Z" fill="white"/>
</mask>
<g mask="url(#mask2_9_4944)">
<path d="M65.9125 60.7396C63.5927 60.7396 61.7125 62.6198 61.7125 64.9396C61.7125 67.2594 63.5927 69.1396 65.9125 69.1396C68.2312 69.1396 70.1125 67.2594 70.1125 64.9396C70.1125 62.6198 68.2312 60.7396 65.9125 60.7396ZM68.7073 67.0302C68.7115 66.7021 68.5687 66.3458 68.2885 66.0666C67.8604 65.6385 67.2552 65.5302 66.8417 65.7791C66.849 65.776 66.8562 65.7729 66.8646 65.7698C67.3042 65.6083 67.8385 65.9594 68.0583 66.5541C68.2771 67.1489 68.0969 67.7625 67.6562 67.9239C67.6542 67.925 67.6521 67.926 67.65 67.9271C67.6698 67.9291 67.6896 67.9312 67.7094 67.9323C67.3187 68.1666 66.8792 68.3271 66.4094 68.3948C66.6448 68.1656 66.7958 67.8125 66.7958 67.4166C66.7958 66.8114 66.4437 66.3073 65.976 66.1906C65.9833 66.1937 65.9906 66.1969 65.9979 66.2C66.424 66.3969 66.5542 67.0229 66.2875 67.5979C66.0219 68.1739 65.4615 68.4802 65.0354 68.2833C65.0333 68.2823 65.0312 68.2812 65.0281 68.2802C65.0406 68.2958 65.0542 68.3114 65.0667 68.326C64.6094 68.2125 64.1875 68.0083 63.8208 67.7344C64.149 67.7385 64.5052 67.5958 64.7854 67.3156C65.2135 66.8885 65.3208 66.2823 65.0729 65.8698C65.075 65.8771 65.0792 65.8844 65.0812 65.8916C65.2437 66.3323 64.8927 66.8666 64.2979 67.0854C63.7031 67.3041 63.0896 67.1239 62.9271 66.6844C62.926 66.6812 62.926 66.6791 62.925 66.6771C62.9229 66.6969 62.9208 66.7166 62.9187 66.7364C62.6844 66.3458 62.524 65.9073 62.4573 65.4375C62.6865 65.6719 63.0396 65.8229 63.4344 65.8229C64.0396 65.8229 64.5448 65.4708 64.6604 65.0031C64.6573 65.0104 64.6552 65.0177 64.6521 65.025C64.4552 65.451 63.8292 65.5812 63.2531 65.3156C62.6781 65.0489 62.3708 64.4885 62.5677 64.0625C62.5687 64.0604 62.5698 64.0583 62.5708 64.0562C62.5552 64.0687 62.5396 64.0812 62.525 64.0937C62.6385 63.6364 62.8427 63.2146 63.1177 62.8479C63.1135 63.1771 63.2562 63.5323 63.5354 63.8125C63.9635 64.2406 64.5698 64.3479 64.9823 64.1C64.975 64.1031 64.9677 64.1062 64.9604 64.1083C64.5198 64.2708 63.9854 63.9198 63.7667 63.325C63.5479 62.7302 63.7271 62.1166 64.1677 61.9541C64.1698 61.9541 64.1719 61.9531 64.174 61.9521C64.1542 61.95 64.1354 61.9479 64.1156 61.9469C64.5052 61.7125 64.9448 61.551 65.4146 61.4844C65.1792 61.7135 65.0281 62.0666 65.0281 62.4625C65.0281 63.0677 65.3802 63.5719 65.8479 63.6885C65.8406 63.6854 65.8333 63.6823 65.826 63.6791C65.4 63.4823 65.2708 62.8562 65.5365 62.2802C65.8021 61.7052 66.3635 61.3979 66.7896 61.5948C66.7917 61.5958 66.7937 61.5969 66.7958 61.5979C66.7833 61.5823 66.7708 61.5677 66.7573 61.5521C67.2156 61.6666 67.6375 61.8698 68.0031 62.1448C67.675 62.1406 67.3187 62.2833 67.0385 62.5625C66.6115 62.9906 66.5031 63.5969 66.7521 64.0094C66.749 64.0021 66.7458 63.9948 66.7427 63.9875C66.5812 63.5469 66.9312 63.0125 67.5271 62.7937C68.1219 62.575 68.7354 62.7541 68.8969 63.1948C68.8979 63.1969 68.899 63.1989 68.899 63.2021C68.9021 63.1823 68.9031 63.1625 68.9052 63.1427C69.1396 63.5323 69.3 63.9719 69.3667 64.4416C69.1375 64.2062 68.7854 64.0562 68.3896 64.0562C67.7844 64.0562 67.2792 64.4083 67.1635 64.876C67.1667 64.8687 67.1698 64.8604 67.1729 64.8531C67.3698 64.4281 67.9958 64.2979 68.5708 64.5635C69.1469 64.8291 69.4531 65.3906 69.2562 65.8166C69.2552 65.8187 69.2542 65.8208 69.2531 65.8229C69.2687 65.8104 69.2844 65.7979 69.299 65.7854C69.1854 66.2427 68.9812 66.6646 68.7073 67.0302ZM67.1635 64.9396C67.1635 65.6302 66.6031 66.1906 65.9125 66.1906C65.2208 66.1906 64.6604 65.6302 64.6604 64.9396C64.6604 64.2479 65.2208 63.6885 65.9125 63.6885C66.6031 63.6885 67.1635 64.2479 67.1635 64.9396Z" fill="white"/>
</g>
</svg>
