<svg width="250" height="250" viewBox="0 0 250 250" fill="none" xmlns="http://www.w3.org/2000/svg">
<g clip-path="url(#clip0_9_1563)">
<rect width="250" height="250" rx="125" fill="white"/>
<path d="M275 -25H-25V275H275V-25Z" fill="white"/>
<path d="M275 -25H-25V275H275V-25Z" fill="white"/>
<path d="M275 -25H-25V275H275V-25Z" fill="#F5F5F5"/>
<path d="M69.521 115.224C55.9403 107.404 28.3856 91.5337 28.1877 91.4192C40.0236 84.6015 67.5783 68.7317 69.521 67.6145C73.4194 65.3671 69.8986 59.3306 65.9871 61.5832C52.4064 69.4035 38.8257 77.2265 25.245 85.0468C23.3049 86.1666 21.3621 87.2837 19.4194 88.4035C17.1486 89.7108 17.1486 93.1249 19.4194 94.4348C32.9976 102.255 64.0444 120.135 65.9871 121.255C69.896 123.505 73.4246 117.474 69.521 115.224Z" fill="#211D1D"/>
<mask id="mask0_9_1563" style="mask-type:luminance" maskUnits="userSpaceOnUse" x="179" y="61" width="55" height="61">
<path d="M179.427 61.0886H233.021V121.805H179.427V61.0886Z" fill="white"/>
</mask>
<g mask="url(#mask0_9_1563)">
<path d="M231.318 88.4037C217.737 80.5834 186.69 62.7032 184.75 61.5834C180.841 59.3308 177.31 65.3646 181.216 67.6146C194.794 75.4349 222.352 91.3047 222.549 91.4193C210.713 98.2344 183.159 114.107 181.216 115.224C177.315 117.471 180.836 123.508 184.75 121.255C198.331 113.435 229.375 95.5521 231.318 94.4349C233.588 93.1276 233.588 89.711 231.318 88.4037Z" fill="#211D1D"/>
</g>
<mask id="mask1_9_1563" style="mask-type:luminance" maskUnits="userSpaceOnUse" x="88" y="34" width="75" height="99">
<path d="M88 34.7188H162.667V132.219H88V34.7188Z" fill="white"/>
</mask>
<g mask="url(#mask1_9_1563)">
<path d="M155.805 108.419C155.805 108.443 155.781 108.461 155.758 108.461H145.263V87.6432H155.758C155.781 87.6432 155.805 87.6615 155.805 87.6849V108.419ZM126.635 99.0078C127.201 98.7865 127.828 99.0651 128.049 99.6276C128.266 100.19 127.984 100.818 127.422 101.036C126.862 101.253 126.229 100.974 126.008 100.411C125.792 99.8542 126.07 99.2214 126.635 99.0078ZM121.359 90.8229C121.359 89.6276 122.331 88.6589 123.529 88.6589C124.721 88.6589 125.693 89.6276 125.693 90.8229C125.693 92.013 124.721 92.9818 123.529 92.9818C122.331 92.9818 121.359 92.013 121.359 90.8229ZM117.323 95.1536C117.323 95.9375 116.688 96.5755 115.904 96.5755C115.112 96.5755 114.477 95.9375 114.477 95.1536C114.477 94.3698 115.112 93.7318 115.904 93.7318C116.688 93.7318 117.323 94.3698 117.323 95.1536ZM114.164 87.8359C112.609 87.6042 111.534 86.1536 111.773 84.6042C112.005 83.0547 113.453 81.9792 115.008 82.2188C116.565 82.4505 117.635 83.8958 117.404 85.4453C117.172 87 115.721 88.0677 114.164 87.8359ZM145.211 64.75C145.193 64.8672 145.169 64.987 145.141 65.1094C145.141 65.1276 145.141 65.1328 145.135 65.151C145.117 65.2266 145.102 65.3073 145.083 65.388C145.07 65.4479 145.055 65.5052 145.042 65.5573C145.018 65.6667 144.984 65.7708 144.956 65.8698C144.133 68.6562 141.977 70.9609 139.143 72.1953C138.854 72.3229 138.555 72.4401 138.253 72.5391C137.544 72.7812 136.805 72.9557 136.036 73.0677C135.904 74.2031 135.594 75.2943 135.13 76.2995H137.742C137.909 76.2995 138.078 76.2995 138.253 76.2865V125.232H103.208V76.2995H107.409V120.872H134.052V78.1146C133.664 78.6615 133.221 79.1536 132.732 79.612C130.818 81.4115 128.247 82.5078 125.414 82.5078C121.104 82.5078 117.393 79.9609 115.693 76.2995C115.245 75.3307 114.938 74.2786 114.797 73.1823H105.503C104.716 73.1823 103.948 73.1068 103.208 72.9609C102.312 72.7943 101.458 72.5208 100.656 72.1667C98.8229 71.3542 97.276 70.1016 96.2005 68.5521C95.1406 67.0495 94.5365 65.2604 94.5365 63.3516C94.5365 59.2083 97.4036 55.6693 101.453 54.224V54.1432C101.453 50.2422 104.622 47.0729 108.544 47.0729C109.266 47.0729 109.964 47.1849 110.62 47.3802C112.01 42.8203 116.263 39.5 121.294 39.5C126.695 39.5 131.198 43.3177 132.232 48.4036C132.544 48.3438 132.878 48.3151 133.216 48.3151C136.438 48.3151 139.062 50.9271 139.062 54.1432C139.062 54.2578 139.057 54.362 139.044 54.474C142.755 56.0469 145.32 59.4297 145.32 63.3516C145.32 63.6927 145.297 64.0312 145.263 64.362C145.263 64.3672 145.263 64.3672 145.263 64.3724C145.245 64.5 145.229 64.6224 145.211 64.75ZM155.758 81.3073H145.263V74.2552C148.888 72.0729 151.279 68.3776 151.279 64.1693C151.279 59.3307 148.115 55.151 143.529 53.2031C143.542 53.0677 143.542 52.9349 143.542 52.8021C143.542 48.8255 140.312 45.6068 136.328 45.6068C135.914 45.6068 135.513 45.6406 135.112 45.7109C133.839 39.4375 128.281 34.7188 121.615 34.7188C115.409 34.7188 110.156 38.8151 108.44 44.4505C107.625 44.2005 106.763 44.0677 105.867 44.0677C101.034 44.0677 97.1198 47.9792 97.1198 52.8021V52.8932C92.1172 54.6771 88.5781 59.0521 88.5781 64.1693C88.5781 68.9453 91.6615 73.0729 96.1354 75.0521C96.1536 75.0625 96.1771 75.0677 96.2005 75.0807V123.99C96.2005 128.534 100.271 132.219 105.305 132.219H136.159C141.185 132.219 145.263 128.534 145.263 123.99V114.802H155.758C159.281 114.802 162.156 111.938 162.156 108.419V87.6849C162.156 84.1693 159.281 81.3073 155.758 81.3073Z" fill="#FFC500"/>
</g>
<path d="M40.8626 173.239C39.0293 173.239 37.3027 173.088 35.6855 172.791V150.083C37.1777 149.903 38.9095 149.812 40.8835 149.812C42.8626 149.812 44.6491 150.083 46.248 150.625C47.8522 151.161 49.1908 151.924 50.2689 152.916C52.4408 154.911 53.5293 157.703 53.5293 161.291C53.5293 165.307 52.3158 168.354 49.8939 170.437C47.7194 172.307 44.709 173.239 40.8626 173.239ZM40.1022 169.094C40.8366 169.234 41.5736 169.302 42.3105 169.302C43.0449 169.302 43.8366 169.161 44.6855 168.875C45.5319 168.583 46.2689 168.133 46.8939 167.521C48.2272 166.229 48.8939 164.351 48.8939 161.885C48.8939 157.83 47.4173 155.341 44.4668 154.416C43.4876 154.112 42.3574 153.958 41.0814 153.958H40.623C40.4564 153.958 40.2819 153.963 40.1022 153.969V169.094Z" fill="#FFC500"/>
<path d="M65.8148 164.041C65.4736 164.062 65.109 164.073 64.721 164.073C64.3382 164.073 63.7679 164.047 63.0127 163.989V172.812H58.5127V150.114C60.096 149.914 62.0439 149.812 64.3564 149.812C67.5023 149.812 69.846 150.393 71.3877 151.552C72.9346 152.713 73.7106 154.505 73.7106 156.927C73.7106 158.802 73.0023 160.411 71.5856 161.75C71.1195 162.182 70.5882 162.552 69.9919 162.864L73.4502 170.166C74.1299 171.674 74.6507 172.567 75.0127 172.844L74.9294 172.927C73.8304 172.747 72.1064 172.755 69.7523 172.948L65.8148 164.041ZM64.6794 153.823C64.1012 153.823 63.5465 153.851 63.0127 153.906V160.385C63.5674 160.469 64.2158 160.51 64.9606 160.51C65.7106 160.51 66.3382 160.445 66.846 160.312C67.359 160.182 67.7992 159.979 68.1689 159.708C68.9736 159.112 69.3773 158.213 69.3773 157.01C69.3773 155.81 68.9554 154.966 68.1169 154.479C67.3382 154.041 66.1924 153.823 64.6794 153.823Z" fill="#FFC500"/>
<path d="M79.292 150.166C80.4222 150.216 81.1071 150.239 81.3441 150.239H82.5628C83.167 150.239 83.6488 150.195 84.0107 150.104L83.9899 172.812H79.292V150.166Z" fill="#FFC500"/>
<path d="M90.5259 172.812C90.5936 172.432 90.63 172.01 90.63 171.552V150.239H94.0259L103.015 164.396V151.396C103.015 150.771 102.958 150.385 102.849 150.239H107.432C107.375 150.692 107.349 151.187 107.349 151.729V172.812H103.818L94.953 159.218V172.812H90.5259Z" fill="#FFC500"/>
<path d="M117.768 172.916C116.982 172.846 115.987 172.812 114.779 172.812H113.435V150.166L114.112 150.208C114.591 150.229 114.948 150.239 115.185 150.239H115.675C116.675 150.239 117.373 150.195 117.768 150.104V159.687L124.643 150.166C125.365 150.216 125.977 150.239 126.477 150.239H127.404C128.57 150.239 129.404 150.195 129.904 150.104L123.352 158.656L129.8 171.458C130.07 172.078 130.323 172.528 130.56 172.812H129.529C127.138 172.812 125.649 172.856 125.06 172.948C124.935 172.192 124.768 171.528 124.56 170.958L120.227 162.718L117.768 165.937V172.916Z" fill="#FFC500"/>
<path d="M143.796 149.812C145.913 149.812 147.718 150.182 149.212 150.916V156.114L149.181 156.146C148.548 155.174 147.212 154.528 145.171 154.208C144.572 154.112 143.817 154.062 142.9 154.062C141.983 154.062 141.082 154.237 140.202 154.583C139.319 154.924 138.593 155.411 138.025 156.041C136.926 157.278 136.379 159.039 136.379 161.323C136.379 163.984 137.077 165.963 138.473 167.26C139.624 168.351 141.153 168.896 143.056 168.896C145.202 168.896 146.944 168.437 148.285 167.521C148.77 167.187 149.181 166.778 149.514 166.291L149.567 166.333V171.083C147.837 172.521 145.507 173.239 142.577 173.239C139.124 173.239 136.421 172.143 134.462 169.948C132.587 167.851 131.65 165.078 131.65 161.625C131.65 157.974 132.676 155.094 134.733 152.989C136.817 150.872 139.837 149.812 143.796 149.812Z" fill="#211D1D"/>
<path d="M155.699 170.135C154.67 169.151 153.857 167.966 153.261 166.583C152.662 165.203 152.365 163.687 152.365 162.041C152.365 160.396 152.641 158.838 153.199 157.364C153.753 155.893 154.545 154.599 155.574 153.479C156.607 152.362 157.855 151.474 159.313 150.812C160.771 150.146 162.407 149.812 164.219 149.812C167.344 149.812 169.972 150.799 172.105 152.771C174.396 154.875 175.542 157.716 175.542 161.291C175.542 164.75 174.365 167.63 172.011 169.927C170.558 171.344 168.834 172.317 166.834 172.844C165.847 173.107 164.693 173.239 163.376 173.239C162.055 173.239 160.701 172.969 159.313 172.427C157.93 171.88 156.725 171.114 155.699 170.135ZM157.084 161.812C157.084 162.87 157.256 163.838 157.605 164.719C157.959 165.601 158.449 166.359 159.074 166.989C160.399 168.323 162.105 168.989 164.188 168.989C166.167 168.989 167.753 168.351 168.949 167.073C170.17 165.755 170.782 163.948 170.782 161.656C170.782 159.51 170.201 157.719 169.042 156.281C167.785 154.739 166.063 153.969 163.876 153.969C161.764 153.969 160.084 154.75 158.834 156.312C157.667 157.771 157.084 159.604 157.084 161.812Z" fill="#211D1D"/>
<path d="M185.397 173.239C183.563 173.239 181.837 173.088 180.22 172.791V150.083C181.712 149.903 183.444 149.812 185.418 149.812C187.397 149.812 189.183 150.083 190.782 150.625C192.386 151.161 193.725 151.924 194.803 152.916C196.975 154.911 198.063 157.703 198.063 161.291C198.063 165.307 196.85 168.354 194.428 170.437C192.254 172.307 189.243 173.239 185.397 173.239ZM184.636 169.094C185.371 169.234 186.108 169.302 186.845 169.302C187.579 169.302 188.371 169.161 189.22 168.875C190.066 168.583 190.803 168.133 191.428 167.521C192.761 166.229 193.428 164.351 193.428 161.885C193.428 157.83 191.951 155.341 189.001 154.416C188.022 154.112 186.892 153.958 185.616 153.958H185.157C184.991 153.958 184.816 153.963 184.636 153.969V169.094Z" fill="#211D1D"/>
<path d="M214.401 168.739C215.102 168.739 215.589 168.671 215.859 168.531L215.932 168.552L215.766 172.812H203.047V150.114C203.352 150.143 203.693 150.161 204.068 150.166L205.255 150.208C206.047 150.229 206.906 150.239 207.839 150.239C210.427 150.239 212.99 150.195 215.526 150.104C215.401 151.099 215.339 152.427 215.339 154.093C215.339 154.276 215.349 154.411 215.37 154.5L215.339 154.552C214.747 154.38 213.911 154.291 212.828 154.291H207.484V158.625H211.505C212.747 158.625 213.495 158.591 213.745 158.52L213.797 162.718C213.247 162.656 212.547 162.625 211.693 162.625H207.484V168.739H214.401Z" fill="#211D1D"/>
<path d="M76.6763 186.181H79.6867C80.645 186.181 81.356 186.436 81.8221 186.941C82.2856 187.449 82.52 188.191 82.52 189.17V195.285C82.52 196.264 82.2856 197.009 81.8221 197.514C81.356 198.022 80.645 198.274 79.6867 198.274H76.6763V186.181ZM78.5825 187.91V196.545H79.6554C79.9523 196.545 80.1893 196.459 80.3638 196.285C80.5356 196.113 80.6242 195.806 80.6242 195.368V189.076C80.6242 188.639 80.5356 188.337 80.3638 188.17C80.1893 187.998 79.9523 187.91 79.6554 187.91H78.5825Z" fill="#737373"/>
<path d="M92.5439 191.274H95.1481V193.004H92.5439V196.545H95.8252V198.274H90.6377V186.181H95.8252V187.91H92.5439V191.274Z" fill="#737373"/>
<path d="M103.908 186.181H105.814V196.545H108.939V198.274H103.908V186.181Z" fill="#737373"/>
<path d="M116.678 186.181H118.584V198.274H116.678V186.181Z" fill="#737373"/>
<path d="M129.749 196.045L131.196 186.181H132.946L131.071 198.274H128.238L126.374 186.181H128.29L129.749 196.045Z" fill="#737373"/>
<path d="M142.638 191.274H145.242V193.004H142.638V196.545H145.919V198.274H140.731V186.181H145.919V187.91H142.638V191.274Z" fill="#737373"/>
<path d="M157.981 198.274C157.96 198.191 157.934 198.116 157.908 198.045C157.887 197.978 157.867 197.894 157.846 197.795C157.83 197.691 157.82 197.561 157.814 197.399C157.807 197.233 157.804 197.03 157.804 196.785V194.889C157.804 194.326 157.705 193.931 157.512 193.701C157.317 193.467 157.002 193.347 156.564 193.347H155.908V198.274H154.002V186.181H156.877C157.861 186.181 158.577 186.41 159.023 186.868C159.465 187.326 159.689 188.024 159.689 188.962V189.91C159.689 191.155 159.275 191.972 158.45 192.368C158.929 192.563 159.257 192.884 159.439 193.326C159.619 193.772 159.71 194.311 159.71 194.941V196.806C159.71 197.105 159.721 197.368 159.742 197.597C159.762 197.821 159.82 198.045 159.919 198.274H157.981ZM155.908 187.91V191.618H156.648C157.007 191.618 157.288 191.53 157.492 191.347C157.692 191.16 157.794 190.826 157.794 190.347V189.149C157.794 188.712 157.713 188.397 157.554 188.201C157.4 188.009 157.158 187.91 156.825 187.91H155.908Z" fill="#737373"/>
<path d="M169.641 194.264L167.245 186.181H169.224L170.683 191.691L172.131 186.181H173.943L171.547 194.264V198.274H169.641V194.264Z" fill="#737373"/>
<mask id="mask2_9_1563" style="mask-type:luminance" maskUnits="userSpaceOnUse" x="154" y="151" width="22" height="22">
<path d="M154.281 151.849H175.281V172.849H154.281V151.849Z" fill="white"/>
</mask>
<g mask="url(#mask2_9_1563)">
<path d="M164.781 151.849C158.982 151.849 154.281 156.549 154.281 162.349C154.281 168.148 158.982 172.849 164.781 172.849C170.578 172.849 175.281 168.148 175.281 162.349C175.281 156.549 170.578 151.849 164.781 151.849ZM171.768 167.575C171.779 166.755 171.422 165.865 170.721 165.167C169.651 164.096 168.138 163.825 167.104 164.448C167.122 164.44 167.141 164.432 167.161 164.424C168.26 164.021 169.596 164.898 170.146 166.385C170.693 167.872 170.242 169.406 169.141 169.81C169.135 169.812 169.13 169.815 169.125 169.818C169.174 169.823 169.224 169.828 169.273 169.831C168.297 170.417 167.198 170.818 166.023 170.987C166.612 170.414 166.99 169.531 166.99 168.542C166.99 167.029 166.109 165.768 164.94 165.476C164.958 165.484 164.977 165.492 164.995 165.5C166.06 165.992 166.385 167.557 165.719 168.995C165.055 170.435 163.654 171.2 162.589 170.708C162.583 170.706 162.578 170.703 162.57 170.7C162.602 170.74 162.635 170.779 162.667 170.815C161.523 170.531 160.469 170.021 159.552 169.336C160.372 169.346 161.263 168.99 161.964 168.289C163.034 167.221 163.302 165.706 162.682 164.674C162.688 164.693 162.698 164.711 162.703 164.729C163.109 165.831 162.232 167.167 160.745 167.713C159.258 168.26 157.724 167.81 157.318 166.711C157.315 166.703 157.315 166.698 157.312 166.693C157.307 166.742 157.302 166.792 157.297 166.841C156.711 165.865 156.31 164.768 156.143 163.594C156.716 164.18 157.599 164.557 158.586 164.557C160.099 164.557 161.362 163.677 161.651 162.508C161.643 162.526 161.638 162.544 161.63 162.562C161.138 163.628 159.573 163.953 158.133 163.289C156.695 162.622 155.927 161.221 156.419 160.156C156.422 160.151 156.424 160.146 156.427 160.141C156.388 160.172 156.349 160.203 156.312 160.234C156.596 159.091 157.107 158.036 157.794 157.12C157.784 157.943 158.141 158.831 158.839 159.531C159.909 160.601 161.424 160.87 162.456 160.25C162.438 160.258 162.419 160.266 162.401 160.271C161.299 160.677 159.964 159.799 159.417 158.312C158.87 156.825 159.318 155.292 160.419 154.885C160.424 154.885 160.43 154.883 160.435 154.88C160.385 154.875 160.339 154.87 160.289 154.867C161.263 154.281 162.362 153.878 163.536 153.711C162.948 154.284 162.57 155.167 162.57 156.156C162.57 157.669 163.451 158.93 164.62 159.221C164.602 159.213 164.583 159.206 164.565 159.198C163.5 158.706 163.177 157.141 163.841 155.7C164.505 154.263 165.909 153.495 166.974 153.987C166.979 153.99 166.984 153.992 166.99 153.995C166.958 153.956 166.927 153.919 166.893 153.88C168.039 154.167 169.094 154.674 170.008 155.362C169.188 155.351 168.297 155.708 167.596 156.406C166.529 157.476 166.258 158.992 166.88 160.023C166.872 160.005 166.865 159.987 166.857 159.969C166.453 158.867 167.328 157.531 168.818 156.984C170.305 156.437 171.839 156.885 172.242 157.987C172.245 157.992 172.247 157.997 172.247 158.005C172.255 157.956 172.258 157.906 172.263 157.857C172.849 158.831 173.25 159.93 173.417 161.104C172.844 160.516 171.964 160.141 170.974 160.141C169.461 160.141 168.198 161.021 167.909 162.19C167.917 162.172 167.924 162.151 167.932 162.133C168.424 161.07 169.99 160.745 171.427 161.409C172.867 162.073 173.633 163.476 173.141 164.542C173.138 164.547 173.135 164.552 173.133 164.557C173.172 164.526 173.211 164.495 173.247 164.463C172.964 165.607 172.453 166.661 171.768 167.575ZM167.909 162.349C167.909 164.075 166.508 165.476 164.781 165.476C163.052 165.476 161.651 164.075 161.651 162.349C161.651 160.62 163.052 159.221 164.781 159.221C166.508 159.221 167.909 160.62 167.909 162.349Z" fill="black"/>
</g>
</g>
<defs>
<clipPath id="clip0_9_1563">
<rect width="250" height="250" rx="125" fill="white"/>
</clipPath>
</defs>
</svg>
