<svg xmlns="http://www.w3.org/2000/svg" xmlns:xlink="http://www.w3.org/1999/xlink" width="500" zoomAndPan="magnify" viewBox="0 0 375 374.999991" height="500" preserveAspectRatio="xMidYMid meet" version="1.0"><defs><g/><clipPath id="8c07a661ee"><path d="M 269.140625 91.632812 L 349.53125 91.632812 L 349.53125 182.707031 L 269.140625 182.707031 Z M 269.140625 91.632812 " clip-rule="nonzero"/></clipPath><clipPath id="0bcfae2246"><path d="M 132 52.078125 L 244 52.078125 L 244 198.328125 L 132 198.328125 Z M 132 52.078125 " clip-rule="nonzero"/></clipPath><clipPath id="e6422d61d7"><path d="M 231.421875 227.773438 L 262.921875 227.773438 L 262.921875 259.273438 L 231.421875 259.273438 Z M 231.421875 227.773438 " clip-rule="nonzero"/></clipPath></defs><rect x="-37.5" width="450" fill="#ffffff" y="-37.499999" height="449.999989" fill-opacity="1"/><rect x="-37.5" width="450" fill="#ffffff" y="-37.499999" height="449.999989" fill-opacity="1"/><rect x="-37.5" width="450" fill="#ffffff" y="-37.499999" height="449.999989" fill-opacity="1"/><path fill="#211d1d" d="M 104.28125 172.835938 C 83.910156 161.105469 42.578125 137.300781 42.28125 137.128906 C 60.035156 126.902344 101.367188 103.097656 104.28125 101.421875 C 110.128906 98.050781 104.847656 88.996094 98.980469 92.375 C 78.609375 104.105469 58.238281 115.839844 37.867188 127.570312 C 34.957031 129.25 32.042969 130.925781 29.128906 132.605469 C 25.722656 134.566406 25.722656 139.6875 29.128906 141.652344 C 49.496094 153.382812 96.066406 180.203125 98.980469 181.882812 C 104.84375 185.257812 110.136719 176.210938 104.28125 172.835938 " fill-opacity="1" fill-rule="nonzero"/><g clip-path="url(#8c07a661ee)"><path fill="#211d1d" d="M 346.976562 132.605469 C 326.605469 120.875 280.035156 94.054688 277.125 92.375 C 271.261719 88.996094 265.964844 98.046875 271.824219 101.421875 C 292.191406 113.152344 333.527344 136.957031 333.824219 137.128906 C 316.070312 147.351562 274.738281 171.160156 271.824219 172.835938 C 265.972656 176.207031 271.253906 185.261719 277.125 181.882812 C 297.496094 170.152344 344.0625 143.328125 346.976562 141.652344 C 350.382812 139.691406 350.382812 134.566406 346.976562 132.605469 " fill-opacity="1" fill-rule="nonzero"/></g><g clip-path="url(#0bcfae2246)"><path fill="#ffc500" d="M 233.707031 162.628906 C 233.707031 162.664062 233.671875 162.691406 233.636719 162.691406 L 217.894531 162.691406 L 217.894531 131.464844 L 233.636719 131.464844 C 233.671875 131.464844 233.707031 131.492188 233.707031 131.527344 Z M 189.953125 148.511719 C 190.800781 148.179688 191.742188 148.597656 192.074219 149.441406 C 192.398438 150.285156 191.976562 151.226562 191.132812 151.554688 C 190.292969 151.878906 189.34375 151.460938 189.011719 150.617188 C 188.6875 149.78125 189.105469 148.832031 189.953125 148.511719 Z M 182.039062 136.234375 C 182.039062 134.441406 183.496094 132.988281 185.292969 132.988281 C 187.082031 132.988281 188.539062 134.441406 188.539062 136.234375 C 188.539062 138.019531 187.082031 139.472656 185.292969 139.472656 C 183.496094 139.472656 182.039062 138.019531 182.039062 136.234375 Z M 175.984375 142.730469 C 175.984375 143.90625 175.03125 144.863281 173.855469 144.863281 C 172.667969 144.863281 171.714844 143.90625 171.714844 142.730469 C 171.714844 141.554688 172.667969 140.597656 173.855469 140.597656 C 175.03125 140.597656 175.984375 141.554688 175.984375 142.730469 Z M 171.246094 131.753906 C 168.914062 131.40625 167.300781 129.230469 167.660156 126.90625 C 168.007812 124.582031 170.179688 122.96875 172.511719 123.328125 C 174.847656 123.675781 176.453125 125.84375 176.105469 128.167969 C 175.757812 130.5 173.582031 132.101562 171.246094 131.753906 Z M 217.816406 97.125 C 217.789062 97.300781 217.753906 97.480469 217.710938 97.664062 C 217.710938 97.691406 217.710938 97.699219 217.703125 97.726562 C 217.675781 97.839844 217.652344 97.960938 217.625 98.082031 C 217.605469 98.171875 217.582031 98.257812 217.5625 98.335938 C 217.527344 98.5 217.476562 98.65625 217.433594 98.804688 C 216.199219 102.984375 212.964844 106.441406 208.714844 108.292969 C 208.28125 108.484375 207.832031 108.660156 207.378906 108.808594 C 206.316406 109.171875 205.207031 109.433594 204.054688 109.601562 C 203.855469 111.304688 203.390625 112.941406 202.695312 114.449219 L 206.613281 114.449219 C 206.863281 114.449219 207.117188 114.449219 207.378906 114.429688 L 207.378906 187.847656 L 154.8125 187.847656 L 154.8125 114.449219 L 161.113281 114.449219 L 161.113281 181.308594 L 201.078125 181.308594 L 201.078125 117.171875 C 200.496094 117.992188 199.832031 118.730469 199.097656 119.417969 C 196.226562 122.117188 192.371094 123.761719 188.121094 123.761719 C 181.65625 123.761719 176.089844 119.941406 173.539062 114.449219 C 172.867188 112.996094 172.40625 111.417969 172.195312 109.773438 L 158.253906 109.773438 C 157.074219 109.773438 155.921875 109.660156 154.8125 109.441406 C 153.46875 109.191406 152.1875 108.78125 150.984375 108.25 C 148.234375 107.03125 145.914062 105.152344 144.300781 102.828125 C 142.710938 100.574219 141.804688 97.890625 141.804688 95.027344 C 141.804688 88.8125 146.105469 83.503906 152.179688 81.335938 L 152.179688 81.214844 C 152.179688 75.363281 156.933594 70.609375 162.816406 70.609375 C 163.898438 70.609375 164.945312 70.777344 165.929688 71.070312 C 168.015625 64.230469 174.394531 59.25 181.941406 59.25 C 190.042969 59.25 196.796875 64.976562 198.347656 72.605469 C 198.816406 72.515625 199.316406 72.472656 199.824219 72.472656 C 204.65625 72.472656 208.59375 76.390625 208.59375 81.214844 C 208.59375 81.386719 208.585938 81.542969 208.566406 81.710938 C 214.132812 84.070312 217.980469 89.144531 217.980469 95.027344 C 217.980469 95.539062 217.945312 96.046875 217.894531 96.542969 C 217.894531 96.550781 217.894531 96.550781 217.894531 96.558594 C 217.867188 96.75 217.84375 96.933594 217.816406 97.125 Z M 233.636719 121.960938 L 217.894531 121.960938 L 217.894531 111.382812 C 223.332031 108.109375 226.917969 102.566406 226.917969 96.253906 C 226.917969 88.996094 222.171875 82.726562 215.292969 79.804688 C 215.3125 79.601562 215.3125 79.402344 215.3125 79.203125 C 215.3125 73.238281 210.46875 68.410156 204.492188 68.410156 C 203.871094 68.410156 203.269531 68.460938 202.667969 68.566406 C 200.757812 59.15625 192.421875 52.078125 182.421875 52.078125 C 173.113281 52.078125 165.234375 58.222656 162.660156 66.675781 C 161.4375 66.300781 160.144531 66.101562 158.800781 66.101562 C 151.550781 66.101562 145.679688 71.96875 145.679688 79.203125 L 145.679688 79.339844 C 138.175781 82.015625 132.867188 88.578125 132.867188 96.253906 C 132.867188 103.417969 137.492188 109.609375 144.203125 112.578125 C 144.230469 112.59375 144.265625 112.601562 144.300781 112.621094 L 144.300781 185.984375 C 144.300781 192.800781 150.40625 198.328125 157.957031 198.328125 L 204.238281 198.328125 C 211.777344 198.328125 217.894531 192.800781 217.894531 185.984375 L 217.894531 172.203125 L 233.636719 172.203125 C 238.921875 172.203125 243.234375 167.90625 243.234375 162.628906 L 243.234375 131.527344 C 243.234375 126.253906 238.921875 121.960938 233.636719 121.960938 " fill-opacity="1" fill-rule="nonzero"/></g><g fill="#ffc500" fill-opacity="1"><g transform="translate(48.669019, 259.218298)"><g><path d="M 12.625 0.640625 C 9.875 0.640625 7.285156 0.414062 4.859375 -0.03125 L 4.859375 -34.09375 C 7.097656 -34.363281 9.695312 -34.5 12.65625 -34.5 C 15.625 -34.5 18.304688 -34.09375 20.703125 -33.28125 C 23.109375 -32.476562 25.117188 -31.332031 26.734375 -29.84375 C 29.992188 -26.851562 31.625 -22.664062 31.625 -17.28125 C 31.625 -11.257812 29.804688 -6.6875 26.171875 -3.5625 C 22.910156 -0.757812 18.394531 0.640625 12.625 0.640625 Z M 11.484375 -5.578125 C 12.585938 -5.367188 13.691406 -5.265625 14.796875 -5.265625 C 15.898438 -5.265625 17.085938 -5.476562 18.359375 -5.90625 C 19.628906 -6.34375 20.734375 -7.019531 21.671875 -7.9375 C 23.671875 -9.875 24.671875 -12.691406 24.671875 -16.390625 C 24.671875 -22.472656 22.457031 -26.207031 18.03125 -27.59375 C 16.5625 -28.050781 14.867188 -28.28125 12.953125 -28.28125 L 12.265625 -28.28125 C 12.015625 -28.28125 11.753906 -28.273438 11.484375 -28.265625 Z M 11.484375 -5.578125 "/></g></g></g><g fill="#ffc500" fill-opacity="1"><g transform="translate(83.394178, 259.218298)"><g><path d="M 15.328125 -13.15625 C 14.816406 -13.125 14.269531 -13.109375 13.6875 -13.109375 C 13.113281 -13.109375 12.257812 -13.148438 11.125 -13.234375 L 11.125 0 L 4.375 0 L 4.375 -34.046875 C 6.75 -34.347656 9.671875 -34.5 13.140625 -34.5 C 17.859375 -34.5 21.375 -33.628906 23.6875 -31.890625 C 26.007812 -30.148438 27.171875 -27.460938 27.171875 -23.828125 C 27.171875 -21.015625 26.109375 -18.601562 23.984375 -16.59375 C 23.285156 -15.945312 22.488281 -15.390625 21.59375 -14.921875 L 26.78125 -3.96875 C 27.800781 -1.707031 28.582031 -0.367188 29.125 0.046875 L 29 0.171875 C 27.351562 -0.0976562 24.765625 -0.0859375 21.234375 0.203125 Z M 13.625 -28.484375 C 12.757812 -28.484375 11.925781 -28.441406 11.125 -28.359375 L 11.125 -18.640625 C 11.957031 -18.515625 12.929688 -18.453125 14.046875 -18.453125 C 15.171875 -18.453125 16.113281 -18.550781 16.875 -18.75 C 17.644531 -18.945312 18.304688 -19.25 18.859375 -19.65625 C 20.066406 -20.550781 20.671875 -21.898438 20.671875 -23.703125 C 20.671875 -25.503906 20.039062 -26.769531 18.78125 -27.5 C 17.613281 -28.15625 15.894531 -28.484375 13.625 -28.484375 Z M 13.625 -28.484375 "/></g></g></g><g fill="#ffc500" fill-opacity="1"><g transform="translate(113.765964, 259.218298)"><g><path d="M 5.171875 -33.96875 C 6.867188 -33.894531 7.894531 -33.859375 8.25 -33.859375 L 10.078125 -33.859375 C 10.984375 -33.859375 11.707031 -33.925781 12.25 -34.0625 L 12.21875 0 L 5.171875 0 Z M 5.171875 -33.96875 "/></g></g></g><g fill="#ffc500" fill-opacity="1"><g transform="translate(131.17946, 259.218298)"><g><path d="M 4.609375 0 C 4.710938 -0.570312 4.765625 -1.203125 4.765625 -1.890625 L 4.765625 -33.859375 L 9.859375 -33.859375 L 23.34375 -12.625 L 23.34375 -32.125 C 23.34375 -33.0625 23.257812 -33.640625 23.09375 -33.859375 L 29.96875 -33.859375 C 29.882812 -33.179688 29.84375 -32.4375 29.84375 -31.625 L 29.84375 0 L 24.546875 0 L 11.25 -20.390625 L 11.25 0 Z M 4.609375 0 "/></g></g></g><g fill="#ffc500" fill-opacity="1"><g transform="translate(165.777328, 259.218298)"><g><path d="M 10.875 0.15625 C 9.695312 0.0507812 8.203125 0 6.390625 0 L 4.375 0 L 4.375 -33.96875 L 5.390625 -33.90625 C 6.109375 -33.875 6.644531 -33.859375 7 -33.859375 L 7.734375 -33.859375 C 9.234375 -33.859375 10.28125 -33.925781 10.875 -34.0625 L 10.875 -19.6875 L 21.1875 -33.96875 C 22.269531 -33.894531 23.1875 -33.859375 23.9375 -33.859375 L 25.328125 -33.859375 C 27.078125 -33.859375 28.328125 -33.925781 29.078125 -34.0625 L 19.25 -21.234375 L 28.921875 -2.03125 C 29.328125 -1.101562 29.707031 -0.425781 30.0625 0 L 28.515625 0 C 24.929688 0 22.695312 0.0664062 21.8125 0.203125 C 21.625 -0.929688 21.375 -1.925781 21.0625 -2.78125 L 14.5625 -15.140625 L 10.875 -10.3125 Z M 10.875 0.15625 "/></g></g></g><g fill="#211d1d" fill-opacity="1"><g transform="translate(196.14693, 259.218298)"><g><path d="M 19.546875 -34.5 C 22.722656 -34.5 25.429688 -33.945312 27.671875 -32.84375 L 27.671875 -25.046875 L 27.625 -25 C 26.675781 -26.457031 24.671875 -27.425781 21.609375 -27.90625 C 20.710938 -28.050781 19.578125 -28.125 18.203125 -28.125 C 16.828125 -28.125 15.476562 -27.863281 14.15625 -27.34375 C 12.832031 -26.832031 11.742188 -26.101562 10.890625 -25.15625 C 9.242188 -23.300781 8.421875 -20.660156 8.421875 -17.234375 C 8.421875 -13.242188 9.46875 -10.273438 11.5625 -8.328125 C 13.289062 -6.691406 15.582031 -5.875 18.4375 -5.875 C 21.65625 -5.875 24.269531 -6.5625 26.28125 -7.9375 C 27.007812 -8.4375 27.625 -9.050781 28.125 -9.78125 L 28.203125 -9.71875 L 28.203125 -2.59375 C 25.609375 -0.4375 22.113281 0.640625 17.71875 0.640625 C 12.539062 0.640625 8.484375 -1.003906 5.546875 -4.296875 C 2.734375 -7.441406 1.328125 -11.601562 1.328125 -16.78125 C 1.328125 -22.257812 2.867188 -26.578125 5.953125 -29.734375 C 9.078125 -32.910156 13.609375 -34.5 19.546875 -34.5 Z M 19.546875 -34.5 "/></g></g></g><g fill="#211d1d" fill-opacity="1"><g transform="translate(226.391424, 259.218298)"><g><path d="M 7.15625 -4.015625 C 5.613281 -5.492188 4.394531 -7.269531 3.5 -9.34375 C 2.601562 -11.414062 2.15625 -13.6875 2.15625 -16.15625 C 2.15625 -18.625 2.570312 -20.960938 3.40625 -23.171875 C 4.238281 -25.378906 5.425781 -27.320312 6.96875 -29 C 8.519531 -30.675781 10.390625 -32.007812 12.578125 -33 C 14.765625 -34 17.21875 -34.5 19.9375 -34.5 C 24.625 -34.5 28.566406 -33.019531 31.765625 -30.0625 C 35.203125 -26.90625 36.921875 -22.644531 36.921875 -17.28125 C 36.921875 -12.09375 35.15625 -7.773438 31.625 -4.328125 C 29.445312 -2.203125 26.859375 -0.742188 23.859375 0.046875 C 22.378906 0.441406 20.648438 0.640625 18.671875 0.640625 C 16.691406 0.640625 14.660156 0.234375 12.578125 -0.578125 C 10.503906 -1.398438 8.695312 -2.546875 7.15625 -4.015625 Z M 9.234375 -16.5 C 9.234375 -14.914062 9.492188 -13.460938 10.015625 -12.140625 C 10.546875 -10.816406 11.28125 -9.679688 12.21875 -8.734375 C 14.207031 -6.734375 16.765625 -5.734375 19.890625 -5.734375 C 22.859375 -5.734375 25.238281 -6.691406 27.03125 -8.609375 C 28.863281 -10.585938 29.78125 -13.296875 29.78125 -16.734375 C 29.78125 -19.953125 28.910156 -22.640625 27.171875 -24.796875 C 25.285156 -27.109375 22.703125 -28.265625 19.421875 -28.265625 C 16.253906 -28.265625 13.734375 -27.09375 11.859375 -24.75 C 10.109375 -22.5625 9.234375 -19.8125 9.234375 -16.5 Z M 9.234375 -16.5 "/></g></g></g><g fill="#211d1d" fill-opacity="1"><g transform="translate(265.469957, 259.218298)"><g><path d="M 12.625 0.640625 C 9.875 0.640625 7.285156 0.414062 4.859375 -0.03125 L 4.859375 -34.09375 C 7.097656 -34.363281 9.695312 -34.5 12.65625 -34.5 C 15.625 -34.5 18.304688 -34.09375 20.703125 -33.28125 C 23.109375 -32.476562 25.117188 -31.332031 26.734375 -29.84375 C 29.992188 -26.851562 31.625 -22.664062 31.625 -17.28125 C 31.625 -11.257812 29.804688 -6.6875 26.171875 -3.5625 C 22.910156 -0.757812 18.394531 0.640625 12.625 0.640625 Z M 11.484375 -5.578125 C 12.585938 -5.367188 13.691406 -5.265625 14.796875 -5.265625 C 15.898438 -5.265625 17.085938 -5.476562 18.359375 -5.90625 C 19.628906 -6.34375 20.734375 -7.019531 21.671875 -7.9375 C 23.671875 -9.875 24.671875 -12.691406 24.671875 -16.390625 C 24.671875 -22.472656 22.457031 -26.207031 18.03125 -27.59375 C 16.5625 -28.050781 14.867188 -28.28125 12.953125 -28.28125 L 12.265625 -28.28125 C 12.015625 -28.28125 11.753906 -28.273438 11.484375 -28.265625 Z M 11.484375 -5.578125 "/></g></g></g><g fill="#211d1d" fill-opacity="1"><g transform="translate(300.195117, 259.218298)"><g><path d="M 21.40625 -6.109375 C 22.457031 -6.109375 23.1875 -6.210938 23.59375 -6.421875 L 23.703125 -6.390625 L 23.453125 0 L 4.375 0 L 4.375 -34.046875 C 4.832031 -34.003906 5.34375 -33.976562 5.90625 -33.96875 L 7.6875 -33.90625 C 8.875 -33.875 10.164062 -33.859375 11.5625 -33.859375 C 15.445312 -33.859375 19.289062 -33.925781 23.09375 -34.0625 C 22.90625 -32.570312 22.8125 -30.578125 22.8125 -28.078125 C 22.8125 -27.804688 22.828125 -27.601562 22.859375 -27.46875 L 22.8125 -27.390625 C 21.925781 -27.648438 20.671875 -27.78125 19.046875 -27.78125 L 11.03125 -27.78125 L 11.03125 -21.28125 L 17.0625 -21.28125 C 18.925781 -21.28125 20.046875 -21.332031 20.421875 -21.4375 L 20.5 -15.140625 C 19.675781 -15.234375 18.625 -15.28125 17.34375 -15.28125 L 11.03125 -15.28125 L 11.03125 -6.109375 Z M 21.40625 -6.109375 "/></g></g></g><g fill="#737373" fill-opacity="1"><g transform="translate(113.983166, 297.411806)"><g><path d="M 1.03125 -18.140625 L 5.546875 -18.140625 C 6.984375 -18.140625 8.050781 -17.757812 8.75 -17 C 9.445312 -16.238281 9.796875 -15.125 9.796875 -13.65625 L 9.796875 -4.484375 C 9.796875 -3.015625 9.445312 -1.898438 8.75 -1.140625 C 8.050781 -0.378906 6.984375 0 5.546875 0 L 1.03125 0 Z M 3.890625 -15.546875 L 3.890625 -2.59375 L 5.5 -2.59375 C 5.945312 -2.59375 6.300781 -2.722656 6.5625 -2.984375 C 6.820312 -3.242188 6.953125 -3.703125 6.953125 -4.359375 L 6.953125 -13.796875 C 6.953125 -14.453125 6.820312 -14.90625 6.5625 -15.15625 C 6.300781 -15.414062 5.945312 -15.546875 5.5 -15.546875 Z M 3.890625 -15.546875 "/></g></g></g><g fill="#737373" fill-opacity="1"><g transform="translate(134.925297, 297.411806)"><g><path d="M 3.890625 -10.5 L 7.796875 -10.5 L 7.796875 -7.90625 L 3.890625 -7.90625 L 3.890625 -2.59375 L 8.8125 -2.59375 L 8.8125 0 L 1.03125 0 L 1.03125 -18.140625 L 8.8125 -18.140625 L 8.8125 -15.546875 L 3.890625 -15.546875 Z M 3.890625 -10.5 "/></g></g></g><g fill="#737373" fill-opacity="1"><g transform="translate(154.831017, 297.411806)"><g><path d="M 1.03125 -18.140625 L 3.890625 -18.140625 L 3.890625 -2.59375 L 8.578125 -2.59375 L 8.578125 0 L 1.03125 0 Z M 1.03125 -18.140625 "/></g></g></g><g fill="#737373" fill-opacity="1"><g transform="translate(173.985342, 297.411806)"><g><path d="M 1.03125 -18.140625 L 3.890625 -18.140625 L 3.890625 0 L 1.03125 0 Z M 1.03125 -18.140625 "/></g></g></g><g fill="#737373" fill-opacity="1"><g transform="translate(189.279059, 297.411806)"><g><path d="M 5.34375 -3.34375 L 7.515625 -18.140625 L 10.140625 -18.140625 L 7.328125 0 L 3.078125 0 L 0.28125 -18.140625 L 3.15625 -18.140625 Z M 5.34375 -3.34375 "/></g></g></g><g fill="#737373" fill-opacity="1"><g transform="translate(210.065717, 297.411806)"><g><path d="M 3.890625 -10.5 L 7.796875 -10.5 L 7.796875 -7.90625 L 3.890625 -7.90625 L 3.890625 -2.59375 L 8.8125 -2.59375 L 8.8125 0 L 1.03125 0 L 1.03125 -18.140625 L 8.8125 -18.140625 L 8.8125 -15.546875 L 3.890625 -15.546875 Z M 3.890625 -10.5 "/></g></g></g><g fill="#737373" fill-opacity="1"><g transform="translate(229.971432, 297.411806)"><g><path d="M 7 0 C 6.96875 -0.125 6.929688 -0.238281 6.890625 -0.34375 C 6.859375 -0.445312 6.828125 -0.570312 6.796875 -0.71875 C 6.773438 -0.875 6.757812 -1.070312 6.75 -1.3125 C 6.738281 -1.5625 6.734375 -1.867188 6.734375 -2.234375 L 6.734375 -5.078125 C 6.734375 -5.921875 6.585938 -6.515625 6.296875 -6.859375 C 6.003906 -7.210938 5.53125 -7.390625 4.875 -7.390625 L 3.890625 -7.390625 L 3.890625 0 L 1.03125 0 L 1.03125 -18.140625 L 5.34375 -18.140625 C 6.820312 -18.140625 7.894531 -17.796875 8.5625 -17.109375 C 9.226562 -16.421875 9.5625 -15.375 9.5625 -13.96875 L 9.5625 -12.546875 C 9.5625 -10.679688 8.941406 -9.453125 7.703125 -8.859375 C 8.421875 -8.566406 8.914062 -8.085938 9.1875 -7.421875 C 9.457031 -6.753906 9.59375 -5.945312 9.59375 -5 L 9.59375 -2.203125 C 9.59375 -1.753906 9.609375 -1.359375 9.640625 -1.015625 C 9.671875 -0.679688 9.757812 -0.34375 9.90625 0 Z M 3.890625 -15.546875 L 3.890625 -9.984375 L 5 -9.984375 C 5.539062 -9.984375 5.960938 -10.117188 6.265625 -10.390625 C 6.566406 -10.671875 6.71875 -11.171875 6.71875 -11.890625 L 6.71875 -13.6875 C 6.71875 -14.34375 6.597656 -14.816406 6.359375 -15.109375 C 6.128906 -15.398438 5.765625 -15.546875 5.265625 -15.546875 Z M 3.890625 -15.546875 "/></g></g></g><g fill="#737373" fill-opacity="1"><g transform="translate(250.75809, 297.411806)"><g><path d="M 3.703125 -6.015625 L 0.109375 -18.140625 L 3.078125 -18.140625 L 5.265625 -9.875 L 7.4375 -18.140625 L 10.15625 -18.140625 L 6.5625 -6.015625 L 6.5625 0 L 3.703125 0 Z M 3.703125 -6.015625 "/></g></g></g><g clip-path="url(#e6422d61d7)"><path fill="#000000" d="M 247.171875 227.773438 C 238.472656 227.773438 231.421875 234.824219 231.421875 243.523438 C 231.421875 252.222656 238.472656 259.273438 247.171875 259.273438 C 255.867188 259.273438 262.921875 252.222656 262.921875 243.523438 C 262.921875 234.824219 255.867188 227.773438 247.171875 227.773438 Z M 257.652344 251.363281 C 257.667969 250.132812 257.132812 248.796875 256.082031 247.75 C 254.476562 246.144531 252.207031 245.738281 250.65625 246.671875 C 250.683594 246.660156 250.710938 246.648438 250.742188 246.636719 C 252.390625 246.03125 254.394531 247.347656 255.21875 249.578125 C 256.039062 251.808594 255.363281 254.109375 253.710938 254.714844 C 253.703125 254.71875 253.695312 254.722656 253.6875 254.726562 C 253.761719 254.734375 253.835938 254.742188 253.910156 254.746094 C 252.445312 255.625 250.796875 256.226562 249.035156 256.480469 C 249.917969 255.621094 250.484375 254.296875 250.484375 252.8125 C 250.484375 250.542969 249.164062 248.652344 247.410156 248.214844 C 247.4375 248.226562 247.464844 248.238281 247.492188 248.25 C 249.089844 248.988281 249.578125 251.335938 248.578125 253.492188 C 247.582031 255.652344 245.480469 256.800781 243.882812 256.0625 C 243.875 256.058594 243.867188 256.054688 243.855469 256.050781 C 243.902344 256.109375 243.953125 256.167969 244 256.222656 C 242.285156 255.796875 240.703125 255.03125 239.328125 254.003906 C 240.558594 254.019531 241.894531 253.484375 242.945312 252.433594 C 244.550781 250.832031 244.953125 248.558594 244.023438 247.011719 C 244.03125 247.039062 244.046875 247.066406 244.054688 247.09375 C 244.664062 248.746094 243.347656 250.75 241.117188 251.570312 C 238.886719 252.390625 236.585938 251.714844 235.976562 250.066406 C 235.972656 250.054688 235.972656 250.046875 235.96875 250.039062 C 235.960938 250.113281 235.953125 250.1875 235.945312 250.261719 C 235.066406 248.796875 234.464844 247.152344 234.214844 245.390625 C 235.074219 246.269531 236.398438 246.835938 237.878906 246.835938 C 240.148438 246.835938 242.042969 245.515625 242.476562 243.761719 C 242.464844 243.789062 242.457031 243.816406 242.445312 243.84375 C 241.707031 245.441406 239.359375 245.929688 237.199219 244.933594 C 235.042969 243.933594 233.890625 241.832031 234.628906 240.234375 C 234.632812 240.226562 234.636719 240.21875 234.640625 240.210938 C 234.582031 240.257812 234.523438 240.304688 234.46875 240.351562 C 234.894531 238.636719 235.660156 237.054688 236.691406 235.679688 C 236.675781 236.914062 237.210938 238.246094 238.257812 239.296875 C 239.863281 240.902344 242.136719 241.304688 243.683594 240.375 C 243.65625 240.386719 243.628906 240.398438 243.601562 240.40625 C 241.949219 241.015625 239.945312 239.699219 239.125 237.46875 C 238.304688 235.238281 238.976562 232.9375 240.628906 232.328125 C 240.636719 232.328125 240.644531 232.324219 240.652344 232.320312 C 240.578125 232.3125 240.507812 232.304688 240.433594 232.300781 C 241.894531 231.421875 243.542969 230.816406 245.304688 230.566406 C 244.421875 231.425781 243.855469 232.75 243.855469 234.234375 C 243.855469 236.503906 245.175781 238.394531 246.929688 238.832031 C 246.902344 238.820312 246.875 238.808594 246.847656 238.796875 C 245.25 238.058594 244.765625 235.710938 245.761719 233.550781 C 246.757812 231.394531 248.863281 230.242188 250.460938 230.980469 C 250.46875 230.984375 250.476562 230.988281 250.484375 230.992188 C 250.4375 230.933594 250.390625 230.878906 250.339844 230.820312 C 252.058594 231.25 253.640625 232.011719 255.011719 233.042969 C 253.78125 233.027344 252.445312 233.5625 251.394531 234.609375 C 249.792969 236.214844 249.386719 238.488281 250.320312 240.035156 C 250.308594 240.007812 250.296875 239.980469 250.285156 239.953125 C 249.679688 238.300781 250.992188 236.296875 253.226562 235.476562 C 255.457031 234.65625 257.757812 235.328125 258.363281 236.980469 C 258.367188 236.988281 258.371094 236.996094 258.371094 237.007812 C 258.382812 236.933594 258.386719 236.859375 258.394531 236.785156 C 259.273438 238.246094 259.875 239.894531 260.125 241.65625 C 259.265625 240.773438 257.945312 240.210938 256.460938 240.210938 C 254.191406 240.210938 252.296875 241.53125 251.863281 243.285156 C 251.875 243.257812 251.886719 243.226562 251.898438 243.199219 C 252.636719 241.605469 254.984375 241.117188 257.140625 242.113281 C 259.300781 243.109375 260.449219 245.214844 259.710938 246.8125 C 259.707031 246.820312 259.703125 246.828125 259.699219 246.835938 C 259.757812 246.789062 259.816406 246.742188 259.871094 246.695312 C 259.445312 248.410156 258.679688 249.992188 257.652344 251.363281 Z M 251.863281 243.523438 C 251.863281 246.113281 249.761719 248.214844 247.171875 248.214844 C 244.578125 248.214844 242.476562 246.113281 242.476562 243.523438 C 242.476562 240.929688 244.578125 238.832031 247.171875 238.832031 C 249.761719 238.832031 251.863281 240.929688 251.863281 243.523438 Z M 251.863281 243.523438 " fill-opacity="1" fill-rule="nonzero"/></g></svg>